<?xml version="1.0" encoding="utf-8"?>
<svg version="1.1" id="Calque_1" xmlns="http://www.w3.org/2000/svg" xmlns:xlink="http://www.w3.org/1999/xlink" x="0px" y="0px"
	 viewBox="0 0 198 198" style="enable-background:new 0 0 198 198;" xml:space="preserve">
<style type="text/css">
	.st0{fill:#C99D66;}
	.st1{fill:#925F36;}
</style>
<g>
	<path class="st0" d="M183.6,198H14c-7.8,0-14.2-6.3-14.2-14.2V14.2C-0.2,6.3,6.1,0,14,0h169.7c7.8,0,14.2,6.3,14.2,14.2v169.7
		C197.8,191.7,191.4,198,183.6,198z"/>
	<path class="st1" d="M34.2,147.6c3.8-3.8,7.7-7.5,10.6-10.9c1.2,0.5,2.5,0.7,3.8,0.7c8.4,0,16.5-5,24.2-15
		c2.2-2.8,6.5-9.2,8.3-12.4c5.6-9.9,8-20.8,8-32.8c0-7.8-1.6-14.2-4.9-19.2c-3.3-5-7.4-7.6-12.5-7.6c-4.3,0-8.3,1.2-12.2,3.5
		c-3.9,2.4-7.5,5.9-11,10.7c0.5-3.7,3.1-17.9,4.6-24.6c4.2-2.4,8.2-4.2,12.1-5.4c3.8-1.2,7.4-1.8,10.8-1.8c5.7,0,10.7,1.6,14.9,4.8
		c4.3,3.2,7.8,8,10.7,14.5c9.7-12,20.7-21.6,33-28.8c-2.2,10.1-3.3,21.3-3.3,33.5c0,16.7,2.1,34.3,6.2,52.8l15.8,2
		c0,0,2,11.7,2.3,12.7c-6.3-1.6-11.2-2.7-15.4-3.6c3.1,11.5,6.2,20.2,9.4,26c-1.5,2.4-6.8,9.4-12.7,17.2
		c-7.4-10-12.6-24.4-15.6-43.2H86.7c-8.7,11-19.1,18.4-31.1,22.1c5.9,4.7,11.7,7.8,17.3,9.4c-4.3,3.8-8.9,7.7-13.2,11.7
		C51.6,160,43.1,154.6,34.2,147.6z M119.6,109.7c-1.9-12.1-2.9-24.2-2.9-36.1v-17c0-3.5,0.2-7.7,0.6-12.6
		c-3.3,2.7-7.8,7.6-13.6,14.7c1,3.9,1.5,7.6,1.5,10.9c0,13.1-3.9,26.5-11.6,40H119.6z"/>
</g>
</svg>
